<svg xmlns="http://www.w3.org/2000/svg" version="1.1" xmlns:xlink="http://www.w3.org/1999/xlink" xmlns:svgjs="http://svgjs.dev/svgjs" width="1440" height="560" preserveAspectRatio="none" viewBox="0 0 1440 560"><g clip-path="url(&quot;#SvgjsClipPath1002&quot;)" fill="none"><circle r="93.335" cx="29.76" cy="-86.81" stroke="#ffffff" stroke-opacity="0.3" stroke-width="2"></circle><circle r="93.335" cx="298.62" cy="332.2" stroke="#ffffff" stroke-opacity="0.3" stroke-width="2"></circle><circle r="93.335" cx="763.65" cy="749" stroke="#ffffff" stroke-opacity="0.3" stroke-width="2"></circle><circle r="147.14" cx="1154.8" cy="90.41" stroke="#ffffff" stroke-opacity="0.3" stroke-width="2"></circle><circle r="100.185" cx="602.86" cy="116.49" stroke="#ffffff" stroke-opacity="0.3" stroke-width="2"></circle><circle r="96.415" cx="118.22" cy="244.84" stroke="#ffffff" stroke-opacity="0.3" stroke-width="2"></circle><circle r="120.785" cx="124.3" cy="300.33" stroke="#ffffff" stroke-opacity="0.3" stroke-width="2"></circle><circle r="111.79" cx="19.33" cy="110.42" stroke="#ffffff" stroke-opacity="0.3" stroke-width="2"></circle><circle r="97.6" cx="1404.53" cy="414.14" stroke="#ffffff" stroke-opacity="0.3" stroke-width="2"></circle><circle r="95.64" cx="1405.14" cy="35.11" stroke="#ffffff" stroke-opacity="0.3" stroke-width="2"></circle><circle r="93.645" cx="776.76" cy="341.2" stroke="#ffffff" stroke-opacity="0.3" stroke-width="2"></circle><circle r="59.74" cx="545.43" cy="474.48" stroke="#ffffff" stroke-opacity="0.3" stroke-width="2"></circle><circle r="81.745" cx="1080.96" cy="525.52" stroke="#ffffff" stroke-opacity="0.3" stroke-width="2"></circle><circle r="111.065" cx="965.52" cy="388.66" stroke="#ffffff" stroke-opacity="0.3" stroke-width="2"></circle><circle r="120.69" cx="1391.02" cy="515.48" stroke="#ffffff" stroke-opacity="0.3" stroke-width="2"></circle><circle r="130.51" cx="1055.57" cy="227.33" stroke="#ffffff" stroke-opacity="0.3" stroke-width="2"></circle><circle r="176.57" cx="128.64" cy="0.33" stroke="#ffffff" stroke-opacity="0.3" stroke-width="2"></circle><circle r="106.695" cx="305.89" cy="183.89" stroke="#ffffff" stroke-opacity="0.3" stroke-width="2"></circle><circle r="178.71" cx="575.16" cy="149.37" stroke="#ffffff" stroke-opacity="0.3" stroke-width="2"></circle><circle r="112.59" cx="1361.09" cy="360.04" stroke="#ffffff" stroke-opacity="0.3" stroke-width="2"></circle><circle r="162.315" cx="794.33" cy="460.07" stroke="#ffffff" stroke-opacity="0.3" stroke-width="2"></circle><circle r="146.815" cx="1167.88" cy="493.41" stroke="#ffffff" stroke-opacity="0.3" stroke-width="2"></circle><circle r="49.66" cx="981.19" cy="333.89" stroke="#ffffff" stroke-opacity="0.3" stroke-width="2"></circle><circle r="60.595" cx="1337.97" cy="229.38" stroke="#ffffff" stroke-opacity="0.3" stroke-width="2"></circle><circle r="80.39" cx="992.8" cy="370.13" stroke="#ffffff" stroke-opacity="0.3" stroke-width="2"></circle><circle r="174.12" cx="77.22" cy="161.66" stroke="#ffffff" stroke-opacity="0.3" stroke-width="2"></circle><circle r="159.355" cx="1056.33" cy="24.14" stroke="#ffffff" stroke-opacity="0.3" stroke-width="2"></circle><circle r="140.42" cx="1414.42" cy="343.36" stroke="#ffffff" stroke-opacity="0.3" stroke-width="2"></circle><circle r="166.225" cx="752.81" cy="252.53" stroke="#ffffff" stroke-opacity="0.3" stroke-width="2"></circle><circle r="181.18" cx="64.77" cy="401.59" stroke="#ffffff" stroke-opacity="0.3" stroke-width="2"></circle><circle r="136.97" cx="65.05" cy="135.64" stroke="#ffffff" stroke-opacity="0.3" stroke-width="2"></circle><circle r="179.225" cx="1433.81" cy="398.64" stroke="#ffffff" stroke-opacity="0.3" stroke-width="2"></circle><circle r="149.235" cx="882.65" cy="523.22" stroke="#ffffff" stroke-opacity="0.3" stroke-width="2"></circle><circle r="183.425" cx="208.56" cy="441.49" stroke="#ffffff" stroke-opacity="0.3" stroke-width="2"></circle><circle r="55.815" cx="1061.39" cy="225.82" stroke="#ffffff" stroke-opacity="0.3" stroke-width="2"></circle><circle r="64.345" cx="224.21" cy="309.4" stroke="#ffffff" stroke-opacity="0.3" stroke-width="2"></circle><circle r="160.305" cx="671.03" cy="288.71" stroke="#ffffff" stroke-opacity="0.3" stroke-width="2"></circle><circle r="55.85" cx="802.07" cy="254.64" stroke="#ffffff" stroke-opacity="0.3" stroke-width="2"></circle><circle r="94.735" cx="240.67" cy="291.13" stroke="#ffffff" stroke-opacity="0.3" stroke-width="2"></circle><circle r="109.42" cx="564.51" cy="9.85" stroke="#ffffff" stroke-opacity="0.3" stroke-width="2"></circle></g><defs><clipPath id="SvgjsClipPath1002"><rect width="1440" height="560" x="0" y="0"></rect></clipPath></defs></svg>