<svg xmlns="http://www.w3.org/2000/svg" version="1.1" xmlns:xlink="http://www.w3.org/1999/xlink" xmlns:svgjs="http://svgjs.dev/svgjs" width="1440" height="560" preserveAspectRatio="none" viewBox="0 0 1440 560"><g mask="url(&quot;#SvgjsMask1014&quot;)" fill="none"><path d="M-40.36 544.92L-40.36 544.92" stroke="rgba(255, 255, 255, 0.3)" stroke-width="1.5"></path><path d="M-40.36 544.92L100.68 548.68" stroke="rgba(255, 255, 255, 0.3)" stroke-width="1.5"></path><path d="M-40.36 544.92L81.17 660.38" stroke="rgba(255, 255, 255, 0.3)" stroke-width="1.5"></path><path d="M-110.4 712.04L-110.4 712.04" stroke="rgba(255, 255, 255, 0.3)" stroke-width="1.5"></path><path d="M-110.4 712.04L-40.36 544.92" stroke="rgba(255, 255, 255, 0.3)" stroke-width="1.5"></path><path d="M-110.4 712.04L81.17 660.38" stroke="rgba(255, 255, 255, 0.3)" stroke-width="1.5"></path><path d="M-110.4 712.04L100.68 548.68" stroke="rgba(255, 255, 255, 0.3)" stroke-width="1.5"></path><path d="M105.41 377.36L105.41 377.36" stroke="rgba(255, 255, 255, 0.3)" stroke-width="1.5"></path><path d="M105.41 377.36L245.83 357.65" stroke="rgba(255, 255, 255, 0.3)" stroke-width="1.5"></path><path d="M105.41 377.36L226.29 497.85" stroke="rgba(255, 255, 255, 0.3)" stroke-width="1.5"></path><path d="M105.41 377.36L100.68 548.68" stroke="rgba(255, 255, 255, 0.3)" stroke-width="1.5"></path><path d="M105.41 377.36L-40.36 544.92" stroke="rgba(255, 255, 255, 0.3)" stroke-width="1.5"></path><path d="M105.41 377.36L81.17 660.38" stroke="rgba(255, 255, 255, 0.3)" stroke-width="1.5"></path><path d="M105.41 377.36L398.44 337.57" stroke="rgba(255, 255, 255, 0.3)" stroke-width="1.5"></path><path d="M100.68 548.68L100.68 548.68" stroke="rgba(255, 255, 255, 0.3)" stroke-width="1.5"></path><path d="M100.68 548.68L81.17 660.38" stroke="rgba(255, 255, 255, 0.3)" stroke-width="1.5"></path><path d="M100.68 548.68L226.29 497.85" stroke="rgba(255, 255, 255, 0.3)" stroke-width="1.5"></path><path d="M81.17 660.38L81.17 660.38" stroke="rgba(255, 255, 255, 0.3)" stroke-width="1.5"></path><path d="M245.83 357.65L245.83 357.65" stroke="rgba(255, 255, 255, 0.3)" stroke-width="1.5"></path><path d="M245.83 357.65L226.29 497.85" stroke="rgba(255, 255, 255, 0.3)" stroke-width="1.5"></path><path d="M245.83 357.65L398.44 337.57" stroke="rgba(255, 255, 255, 0.3)" stroke-width="1.5"></path><path d="M245.83 357.65L380.52 507.22" stroke="rgba(255, 255, 255, 0.3)" stroke-width="1.5"></path><path d="M226.29 497.85L226.29 497.85" stroke="rgba(255, 255, 255, 0.3)" stroke-width="1.5"></path><path d="M398.44 337.57L398.44 337.57" stroke="rgba(255, 255, 255, 0.3)" stroke-width="1.5"></path><path d="M398.44 337.57L519.44 378.49" stroke="rgba(255, 255, 255, 0.3)" stroke-width="1.5"></path><path d="M398.44 337.57L380.52 507.22" stroke="rgba(255, 255, 255, 0.3)" stroke-width="1.5"></path><path d="M398.44 337.57L532.07 487.93" stroke="rgba(255, 255, 255, 0.3)" stroke-width="1.5"></path><path d="M398.44 337.57L226.29 497.85" stroke="rgba(255, 255, 255, 0.3)" stroke-width="1.5"></path><path d="M380.52 507.22L380.52 507.22" stroke="rgba(255, 255, 255, 0.3)" stroke-width="1.5"></path><path d="M380.52 507.22L532.07 487.93" stroke="rgba(255, 255, 255, 0.3)" stroke-width="1.5"></path><path d="M380.52 507.22L226.29 497.85" stroke="rgba(255, 255, 255, 0.3)" stroke-width="1.5"></path><path d="M380.52 507.22L519.44 378.49" stroke="rgba(255, 255, 255, 0.3)" stroke-width="1.5"></path><path d="M380.52 507.22L410.25 694.4" stroke="rgba(255, 255, 255, 0.3)" stroke-width="1.5"></path><path d="M410.25 694.4L410.25 694.4" stroke="rgba(255, 255, 255, 0.3)" stroke-width="1.5"></path><path d="M410.25 694.4L512.2 693.27" stroke="rgba(255, 255, 255, 0.3)" stroke-width="1.5"></path><path d="M410.25 694.4L532.07 487.93" stroke="rgba(255, 255, 255, 0.3)" stroke-width="1.5"></path><path d="M410.25 694.4L667.74 692.91" stroke="rgba(255, 255, 255, 0.3)" stroke-width="1.5"></path><path d="M410.25 694.4L226.29 497.85" stroke="rgba(255, 255, 255, 0.3)" stroke-width="1.5"></path><path d="M410.25 694.4L644.43 545" stroke="rgba(255, 255, 255, 0.3)" stroke-width="1.5"></path><path d="M519.44 378.49L519.44 378.49" stroke="rgba(255, 255, 255, 0.3)" stroke-width="1.5"></path><path d="M519.44 378.49L532.07 487.93" stroke="rgba(255, 255, 255, 0.3)" stroke-width="1.5"></path><path d="M519.44 378.49L680.15 348.22" stroke="rgba(255, 255, 255, 0.3)" stroke-width="1.5"></path><path d="M519.44 378.49L644.43 545" stroke="rgba(255, 255, 255, 0.3)" stroke-width="1.5"></path><path d="M519.44 378.49L791.41 392.48" stroke="rgba(255, 255, 255, 0.3)" stroke-width="1.5"></path><path d="M532.07 487.93L532.07 487.93" stroke="rgba(255, 255, 255, 0.3)" stroke-width="1.5"></path><path d="M532.07 487.93L644.43 545" stroke="rgba(255, 255, 255, 0.3)" stroke-width="1.5"></path><path d="M512.2 693.27L512.2 693.27" stroke="rgba(255, 255, 255, 0.3)" stroke-width="1.5"></path><path d="M512.2 693.27L667.74 692.91" stroke="rgba(255, 255, 255, 0.3)" stroke-width="1.5"></path><path d="M512.2 693.27L644.43 545" stroke="rgba(255, 255, 255, 0.3)" stroke-width="1.5"></path><path d="M512.2 693.27L532.07 487.93" stroke="rgba(255, 255, 255, 0.3)" stroke-width="1.5"></path><path d="M680.15 348.22L680.15 348.22" stroke="rgba(255, 255, 255, 0.3)" stroke-width="1.5"></path><path d="M680.15 348.22L791.41 392.48" stroke="rgba(255, 255, 255, 0.3)" stroke-width="1.5"></path><path d="M680.15 348.22L793.23 230.46" stroke="rgba(255, 255, 255, 0.3)" stroke-width="1.5"></path><path d="M680.15 348.22L644.43 545" stroke="rgba(255, 255, 255, 0.3)" stroke-width="1.5"></path><path d="M680.15 348.22L532.07 487.93" stroke="rgba(255, 255, 255, 0.3)" stroke-width="1.5"></path><path d="M644.43 545L644.43 545" stroke="rgba(255, 255, 255, 0.3)" stroke-width="1.5"></path><path d="M644.43 545L792.04 542.82" stroke="rgba(255, 255, 255, 0.3)" stroke-width="1.5"></path><path d="M644.43 545L667.74 692.91" stroke="rgba(255, 255, 255, 0.3)" stroke-width="1.5"></path><path d="M667.74 692.91L667.74 692.91" stroke="rgba(255, 255, 255, 0.3)" stroke-width="1.5"></path><path d="M667.74 692.91L840.4 694.37" stroke="rgba(255, 255, 255, 0.3)" stroke-width="1.5"></path><path d="M667.74 692.91L792.04 542.82" stroke="rgba(255, 255, 255, 0.3)" stroke-width="1.5"></path><path d="M667.74 692.91L532.07 487.93" stroke="rgba(255, 255, 255, 0.3)" stroke-width="1.5"></path><path d="M845.7 110.6L845.7 110.6" stroke="rgba(255, 255, 255, 0.3)" stroke-width="1.5"></path><path d="M845.7 110.6L949 105.49" stroke="rgba(255, 255, 255, 0.3)" stroke-width="1.5"></path><path d="M845.7 110.6L793.23 230.46" stroke="rgba(255, 255, 255, 0.3)" stroke-width="1.5"></path><path d="M845.7 110.6L993.89 231.28" stroke="rgba(255, 255, 255, 0.3)" stroke-width="1.5"></path><path d="M845.7 110.6L960.46 -88.19" stroke="rgba(255, 255, 255, 0.3)" stroke-width="1.5"></path><path d="M845.7 110.6L791.41 392.48" stroke="rgba(255, 255, 255, 0.3)" stroke-width="1.5"></path><path d="M845.7 110.6L680.15 348.22" stroke="rgba(255, 255, 255, 0.3)" stroke-width="1.5"></path><path d="M793.23 230.46L793.23 230.46" stroke="rgba(255, 255, 255, 0.3)" stroke-width="1.5"></path><path d="M793.23 230.46L791.41 392.48" stroke="rgba(255, 255, 255, 0.3)" stroke-width="1.5"></path><path d="M793.23 230.46L949 105.49" stroke="rgba(255, 255, 255, 0.3)" stroke-width="1.5"></path><path d="M793.23 230.46L993.89 231.28" stroke="rgba(255, 255, 255, 0.3)" stroke-width="1.5"></path><path d="M793.23 230.46L1011.3 363.52" stroke="rgba(255, 255, 255, 0.3)" stroke-width="1.5"></path><path d="M791.41 392.48L791.41 392.48" stroke="rgba(255, 255, 255, 0.3)" stroke-width="1.5"></path><path d="M791.41 392.48L792.04 542.82" stroke="rgba(255, 255, 255, 0.3)" stroke-width="1.5"></path><path d="M791.41 392.48L644.43 545" stroke="rgba(255, 255, 255, 0.3)" stroke-width="1.5"></path><path d="M791.41 392.48L1011.3 363.52" stroke="rgba(255, 255, 255, 0.3)" stroke-width="1.5"></path><path d="M792.04 542.82L792.04 542.82" stroke="rgba(255, 255, 255, 0.3)" stroke-width="1.5"></path><path d="M840.4 694.37L840.4 694.37" stroke="rgba(255, 255, 255, 0.3)" stroke-width="1.5"></path><path d="M840.4 694.37L962.64 678.36" stroke="rgba(255, 255, 255, 0.3)" stroke-width="1.5"></path><path d="M840.4 694.37L792.04 542.82" stroke="rgba(255, 255, 255, 0.3)" stroke-width="1.5"></path><path d="M840.4 694.37L951.73 547.99" stroke="rgba(255, 255, 255, 0.3)" stroke-width="1.5"></path><path d="M840.4 694.37L644.43 545" stroke="rgba(255, 255, 255, 0.3)" stroke-width="1.5"></path><path d="M960.46 -88.19L960.46 -88.19" stroke="rgba(255, 255, 255, 0.3)" stroke-width="1.5"></path><path d="M960.46 -88.19L1114.53 -68.63" stroke="rgba(255, 255, 255, 0.3)" stroke-width="1.5"></path><path d="M960.46 -88.19L949 105.49" stroke="rgba(255, 255, 255, 0.3)" stroke-width="1.5"></path><path d="M960.46 -88.19L1138.21 42.52" stroke="rgba(255, 255, 255, 0.3)" stroke-width="1.5"></path><path d="M949 105.49L949 105.49" stroke="rgba(255, 255, 255, 0.3)" stroke-width="1.5"></path><path d="M949 105.49L993.89 231.28" stroke="rgba(255, 255, 255, 0.3)" stroke-width="1.5"></path><path d="M993.89 231.28L993.89 231.28" stroke="rgba(255, 255, 255, 0.3)" stroke-width="1.5"></path><path d="M993.89 231.28L1011.3 363.52" stroke="rgba(255, 255, 255, 0.3)" stroke-width="1.5"></path><path d="M1011.3 363.52L1011.3 363.52" stroke="rgba(255, 255, 255, 0.3)" stroke-width="1.5"></path><path d="M1011.3 363.52L1132.99 352.46" stroke="rgba(255, 255, 255, 0.3)" stroke-width="1.5"></path><path d="M951.73 547.99L951.73 547.99" stroke="rgba(255, 255, 255, 0.3)" stroke-width="1.5"></path><path d="M951.73 547.99L962.64 678.36" stroke="rgba(255, 255, 255, 0.3)" stroke-width="1.5"></path><path d="M951.73 547.99L792.04 542.82" stroke="rgba(255, 255, 255, 0.3)" stroke-width="1.5"></path><path d="M951.73 547.99L1117.74 557.7" stroke="rgba(255, 255, 255, 0.3)" stroke-width="1.5"></path><path d="M951.73 547.99L1011.3 363.52" stroke="rgba(255, 255, 255, 0.3)" stroke-width="1.5"></path><path d="M962.64 678.36L962.64 678.36" stroke="rgba(255, 255, 255, 0.3)" stroke-width="1.5"></path><path d="M962.64 678.36L1089.03 689.32" stroke="rgba(255, 255, 255, 0.3)" stroke-width="1.5"></path><path d="M962.64 678.36L1117.74 557.7" stroke="rgba(255, 255, 255, 0.3)" stroke-width="1.5"></path><path d="M962.64 678.36L792.04 542.82" stroke="rgba(255, 255, 255, 0.3)" stroke-width="1.5"></path><path d="M962.64 678.36L667.74 692.91" stroke="rgba(255, 255, 255, 0.3)" stroke-width="1.5"></path><path d="M1114.53 -68.63L1114.53 -68.63" stroke="rgba(255, 255, 255, 0.3)" stroke-width="1.5"></path><path d="M1114.53 -68.63L1138.21 42.52" stroke="rgba(255, 255, 255, 0.3)" stroke-width="1.5"></path><path d="M1114.53 -68.63L1289.39 -38.61" stroke="rgba(255, 255, 255, 0.3)" stroke-width="1.5"></path><path d="M1138.21 42.52L1138.21 42.52" stroke="rgba(255, 255, 255, 0.3)" stroke-width="1.5"></path><path d="M1138.21 42.52L1154.86 195.4" stroke="rgba(255, 255, 255, 0.3)" stroke-width="1.5"></path><path d="M1154.86 195.4L1154.86 195.4" stroke="rgba(255, 255, 255, 0.3)" stroke-width="1.5"></path><path d="M1154.86 195.4L1132.99 352.46" stroke="rgba(255, 255, 255, 0.3)" stroke-width="1.5"></path><path d="M1132.99 352.46L1132.99 352.46" stroke="rgba(255, 255, 255, 0.3)" stroke-width="1.5"></path><path d="M1132.99 352.46L1241.1 355.65" stroke="rgba(255, 255, 255, 0.3)" stroke-width="1.5"></path><path d="M1132.99 352.46L993.89 231.28" stroke="rgba(255, 255, 255, 0.3)" stroke-width="1.5"></path><path d="M1117.74 557.7L1117.74 557.7" stroke="rgba(255, 255, 255, 0.3)" stroke-width="1.5"></path><path d="M1117.74 557.7L1089.03 689.32" stroke="rgba(255, 255, 255, 0.3)" stroke-width="1.5"></path><path d="M1117.74 557.7L1312.49 549.02" stroke="rgba(255, 255, 255, 0.3)" stroke-width="1.5"></path><path d="M1089.03 689.32L1089.03 689.32" stroke="rgba(255, 255, 255, 0.3)" stroke-width="1.5"></path><path d="M1089.03 689.32L951.73 547.99" stroke="rgba(255, 255, 255, 0.3)" stroke-width="1.5"></path><path d="M1289.39 -38.61L1289.39 -38.61" stroke="rgba(255, 255, 255, 0.3)" stroke-width="1.5"></path><path d="M1289.39 -38.61L1388.93 -66.51" stroke="rgba(255, 255, 255, 0.3)" stroke-width="1.5"></path><path d="M1289.39 -38.61L1138.21 42.52" stroke="rgba(255, 255, 255, 0.3)" stroke-width="1.5"></path><path d="M1309.18 232.22L1309.18 232.22" stroke="rgba(255, 255, 255, 0.3)" stroke-width="1.5"></path><path d="M1309.18 232.22L1410.8 207.95" stroke="rgba(255, 255, 255, 0.3)" stroke-width="1.5"></path><path d="M1309.18 232.22L1241.1 355.65" stroke="rgba(255, 255, 255, 0.3)" stroke-width="1.5"></path><path d="M1309.18 232.22L1154.86 195.4" stroke="rgba(255, 255, 255, 0.3)" stroke-width="1.5"></path><path d="M1309.18 232.22L1400.13 387.57" stroke="rgba(255, 255, 255, 0.3)" stroke-width="1.5"></path><path d="M1309.18 232.22L1132.99 352.46" stroke="rgba(255, 255, 255, 0.3)" stroke-width="1.5"></path><path d="M1241.1 355.65L1241.1 355.65" stroke="rgba(255, 255, 255, 0.3)" stroke-width="1.5"></path><path d="M1241.1 355.65L1400.13 387.57" stroke="rgba(255, 255, 255, 0.3)" stroke-width="1.5"></path><path d="M1241.1 355.65L1154.86 195.4" stroke="rgba(255, 255, 255, 0.3)" stroke-width="1.5"></path><path d="M1241.1 355.65L1312.49 549.02" stroke="rgba(255, 255, 255, 0.3)" stroke-width="1.5"></path><path d="M1241.1 355.65L1389.22 500.09" stroke="rgba(255, 255, 255, 0.3)" stroke-width="1.5"></path><path d="M1312.49 549.02L1312.49 549.02" stroke="rgba(255, 255, 255, 0.3)" stroke-width="1.5"></path><path d="M1312.49 549.02L1389.22 500.09" stroke="rgba(255, 255, 255, 0.3)" stroke-width="1.5"></path><path d="M1312.49 549.02L1301.48 662.14" stroke="rgba(255, 255, 255, 0.3)" stroke-width="1.5"></path><path d="M1312.49 549.02L1400.13 387.57" stroke="rgba(255, 255, 255, 0.3)" stroke-width="1.5"></path><path d="M1312.49 549.02L1420.38 706.3" stroke="rgba(255, 255, 255, 0.3)" stroke-width="1.5"></path><path d="M1301.48 662.14L1301.48 662.14" stroke="rgba(255, 255, 255, 0.3)" stroke-width="1.5"></path><path d="M1301.48 662.14L1420.38 706.3" stroke="rgba(255, 255, 255, 0.3)" stroke-width="1.5"></path><path d="M1301.48 662.14L1389.22 500.09" stroke="rgba(255, 255, 255, 0.3)" stroke-width="1.5"></path><path d="M1301.48 662.14L1117.74 557.7" stroke="rgba(255, 255, 255, 0.3)" stroke-width="1.5"></path><path d="M1301.48 662.14L1089.03 689.32" stroke="rgba(255, 255, 255, 0.3)" stroke-width="1.5"></path><path d="M1388.93 -66.51L1388.93 -66.51" stroke="rgba(255, 255, 255, 0.3)" stroke-width="1.5"></path><path d="M1388.93 -66.51L1592.41 -77.68" stroke="rgba(255, 255, 255, 0.3)" stroke-width="1.5"></path><path d="M1410.8 207.95L1410.8 207.95" stroke="rgba(255, 255, 255, 0.3)" stroke-width="1.5"></path><path d="M1410.8 207.95L1400.13 387.57" stroke="rgba(255, 255, 255, 0.3)" stroke-width="1.5"></path><path d="M1410.8 207.95L1604.39 235.33" stroke="rgba(255, 255, 255, 0.3)" stroke-width="1.5"></path><path d="M1410.8 207.95L1241.1 355.65" stroke="rgba(255, 255, 255, 0.3)" stroke-width="1.5"></path><path d="M1410.8 207.95L1589.61 369.29" stroke="rgba(255, 255, 255, 0.3)" stroke-width="1.5"></path><path d="M1400.13 387.57L1400.13 387.57" stroke="rgba(255, 255, 255, 0.3)" stroke-width="1.5"></path><path d="M1400.13 387.57L1389.22 500.09" stroke="rgba(255, 255, 255, 0.3)" stroke-width="1.5"></path><path d="M1400.13 387.57L1589.61 369.29" stroke="rgba(255, 255, 255, 0.3)" stroke-width="1.5"></path><path d="M1389.22 500.09L1389.22 500.09" stroke="rgba(255, 255, 255, 0.3)" stroke-width="1.5"></path><path d="M1420.38 706.3L1420.38 706.3" stroke="rgba(255, 255, 255, 0.3)" stroke-width="1.5"></path><path d="M1420.38 706.3L1574.81 652.32" stroke="rgba(255, 255, 255, 0.3)" stroke-width="1.5"></path><path d="M1592.41 -77.68L1592.41 -77.68" stroke="rgba(255, 255, 255, 0.3)" stroke-width="1.5"></path><path d="M1592.41 -77.68L1609.88 60.71" stroke="rgba(255, 255, 255, 0.3)" stroke-width="1.5"></path><path d="M1592.41 -77.68L1289.39 -38.61" stroke="rgba(255, 255, 255, 0.3)" stroke-width="1.5"></path><path d="M1592.41 -77.68L1604.39 235.33" stroke="rgba(255, 255, 255, 0.3)" stroke-width="1.5"></path><path d="M1592.41 -77.68L1410.8 207.95" stroke="rgba(255, 255, 255, 0.3)" stroke-width="1.5"></path><path d="M1609.88 60.71L1609.88 60.71" stroke="rgba(255, 255, 255, 0.3)" stroke-width="1.5"></path><path d="M1609.88 60.71L1604.39 235.33" stroke="rgba(255, 255, 255, 0.3)" stroke-width="1.5"></path><path d="M1604.39 235.33L1604.39 235.33" stroke="rgba(255, 255, 255, 0.3)" stroke-width="1.5"></path><path d="M1604.39 235.33L1589.61 369.29" stroke="rgba(255, 255, 255, 0.3)" stroke-width="1.5"></path><path d="M1589.61 369.29L1589.61 369.29" stroke="rgba(255, 255, 255, 0.3)" stroke-width="1.5"></path><path d="M1589.61 369.29L1563.38 550.13" stroke="rgba(255, 255, 255, 0.3)" stroke-width="1.5"></path><path d="M1563.38 550.13L1563.38 550.13" stroke="rgba(255, 255, 255, 0.3)" stroke-width="1.5"></path><path d="M1563.38 550.13L1574.81 652.32" stroke="rgba(255, 255, 255, 0.3)" stroke-width="1.5"></path><path d="M1563.38 550.13L1389.22 500.09" stroke="rgba(255, 255, 255, 0.3)" stroke-width="1.5"></path><path d="M1563.38 550.13L1420.38 706.3" stroke="rgba(255, 255, 255, 0.3)" stroke-width="1.5"></path><path d="M1563.38 550.13L1400.13 387.57" stroke="rgba(255, 255, 255, 0.3)" stroke-width="1.5"></path><path d="M1574.81 652.32L1574.81 652.32" stroke="rgba(255, 255, 255, 0.3)" stroke-width="1.5"></path><path d="M1574.81 652.32L1389.22 500.09" stroke="rgba(255, 255, 255, 0.3)" stroke-width="1.5"></path><path d="M1574.81 652.32L1301.48 662.14" stroke="rgba(255, 255, 255, 0.3)" stroke-width="1.5"></path><circle r="5" cx="-40.36" cy="544.92" fill="rgba(255, 255, 255, 0.3)"></circle><circle r="5" cx="-110.4" cy="712.04" fill="rgba(255, 255, 255, 0.3)"></circle><circle r="5" cx="105.41" cy="377.36" fill="rgba(255, 255, 255, 0.3)"></circle><circle r="5" cx="100.68" cy="548.68" fill="rgba(255, 255, 255, 0.3)"></circle><circle r="5" cx="81.17" cy="660.38" fill="rgba(255, 255, 255, 0.3)"></circle><circle r="5" cx="245.83" cy="357.65" fill="rgba(255, 255, 255, 0.3)"></circle><circle r="5" cx="226.29" cy="497.85" fill="rgba(255, 255, 255, 0.3)"></circle><circle r="5" cx="398.44" cy="337.57" fill="rgba(255, 255, 255, 0.3)"></circle><circle r="5" cx="380.52" cy="507.22" fill="rgba(255, 255, 255, 0.3)"></circle><circle r="5" cx="410.25" cy="694.4" fill="rgba(255, 255, 255, 0.3)"></circle><circle r="5" cx="519.44" cy="378.49" fill="rgba(255, 255, 255, 0.3)"></circle><circle r="5" cx="532.07" cy="487.93" fill="rgba(255, 255, 255, 0.3)"></circle><circle r="5" cx="512.2" cy="693.27" fill="rgba(255, 255, 255, 0.3)"></circle><circle r="5" cx="680.15" cy="348.22" fill="rgba(255, 255, 255, 0.3)"></circle><circle r="5" cx="644.43" cy="545" fill="rgba(255, 255, 255, 0.3)"></circle><circle r="5" cx="667.74" cy="692.91" fill="rgba(255, 255, 255, 0.3)"></circle><circle r="5" cx="845.7" cy="110.6" fill="rgba(255, 255, 255, 0.3)"></circle><circle r="5" cx="793.23" cy="230.46" fill="rgba(255, 255, 255, 0.3)"></circle><circle r="5" cx="791.41" cy="392.48" fill="rgba(255, 255, 255, 0.3)"></circle><circle r="5" cx="792.04" cy="542.82" fill="rgba(255, 255, 255, 0.3)"></circle><circle r="5" cx="840.4" cy="694.37" fill="rgba(255, 255, 255, 0.3)"></circle><circle r="5" cx="960.46" cy="-88.19" fill="rgba(255, 255, 255, 0.3)"></circle><circle r="5" cx="949" cy="105.49" fill="rgba(255, 255, 255, 0.3)"></circle><circle r="5" cx="993.89" cy="231.28" fill="rgba(255, 255, 255, 0.3)"></circle><circle r="5" cx="1011.3" cy="363.52" fill="rgba(255, 255, 255, 0.3)"></circle><circle r="5" cx="951.73" cy="547.99" fill="rgba(255, 255, 255, 0.3)"></circle><circle r="5" cx="962.64" cy="678.36" fill="rgba(255, 255, 255, 0.3)"></circle><circle r="5" cx="1114.53" cy="-68.63" fill="rgba(255, 255, 255, 0.3)"></circle><circle r="5" cx="1138.21" cy="42.52" fill="rgba(255, 255, 255, 0.3)"></circle><circle r="5" cx="1154.86" cy="195.4" fill="rgba(255, 255, 255, 0.3)"></circle><circle r="5" cx="1132.99" cy="352.46" fill="rgba(255, 255, 255, 0.3)"></circle><circle r="5" cx="1117.74" cy="557.7" fill="rgba(255, 255, 255, 0.3)"></circle><circle r="5" cx="1089.03" cy="689.32" fill="rgba(255, 255, 255, 0.3)"></circle><circle r="5" cx="1289.39" cy="-38.61" fill="rgba(255, 255, 255, 0.3)"></circle><circle r="5" cx="1309.18" cy="232.22" fill="rgba(255, 255, 255, 0.3)"></circle><circle r="5" cx="1241.1" cy="355.65" fill="rgba(255, 255, 255, 0.3)"></circle><circle r="5" cx="1312.49" cy="549.02" fill="rgba(255, 255, 255, 0.3)"></circle><circle r="5" cx="1301.48" cy="662.14" fill="rgba(255, 255, 255, 0.3)"></circle><circle r="5" cx="1388.93" cy="-66.51" fill="rgba(255, 255, 255, 0.3)"></circle><circle r="5" cx="1410.8" cy="207.95" fill="rgba(255, 255, 255, 0.3)"></circle><circle r="5" cx="1400.13" cy="387.57" fill="rgba(255, 255, 255, 0.3)"></circle><circle r="5" cx="1389.22" cy="500.09" fill="rgba(255, 255, 255, 0.3)"></circle><circle r="5" cx="1420.38" cy="706.3" fill="rgba(255, 255, 255, 0.3)"></circle><circle r="5" cx="1592.41" cy="-77.68" fill="rgba(255, 255, 255, 0.3)"></circle><circle r="5" cx="1609.88" cy="60.71" fill="rgba(255, 255, 255, 0.3)"></circle><circle r="5" cx="1604.39" cy="235.33" fill="rgba(255, 255, 255, 0.3)"></circle><circle r="5" cx="1589.61" cy="369.29" fill="rgba(255, 255, 255, 0.3)"></circle><circle r="5" cx="1563.38" cy="550.13" fill="rgba(255, 255, 255, 0.3)"></circle><circle r="5" cx="1574.81" cy="652.32" fill="rgba(255, 255, 255, 0.3)"></circle><path d="M90.52 660.31L90.52 660.31" stroke="hsla(0, 0%, 100%, 0.6)" stroke-width="1.5"></path><path d="M90.52 660.31L-65.16 660.96" stroke="hsla(0, 0%, 100%, 0.6)" stroke-width="1.5"></path><path d="M90.52 660.31L247.43 672.7" stroke="hsla(0, 0%, 100%, 0.6)" stroke-width="1.5"></path><path d="M90.52 660.31L89.3 490.62" stroke="hsla(0, 0%, 100%, 0.6)" stroke-width="1.5"></path><path d="M90.52 660.31L-74.88 544.4" stroke="hsla(0, 0%, 100%, 0.6)" stroke-width="1.5"></path><path d="M90.52 660.31L253.43 487.83" stroke="hsla(0, 0%, 100%, 0.6)" stroke-width="1.5"></path><path d="M90.52 660.31L411.48 531.24" stroke="hsla(0, 0%, 100%, 0.6)" stroke-width="1.5"></path><path d="M711.91 695L711.91 695" stroke="hsla(0, 0%, 100%, 0.6)" stroke-width="1.5"></path><path d="M711.91 695L830.72 650.55" stroke="hsla(0, 0%, 100%, 0.6)" stroke-width="1.5"></path><path d="M711.91 695L711.15 547.97" stroke="hsla(0, 0%, 100%, 0.6)" stroke-width="1.5"></path><path d="M711.91 695L804.42 546.09" stroke="hsla(0, 0%, 100%, 0.6)" stroke-width="1.5"></path><path d="M711.91 695L514.69 656.83" stroke="hsla(0, 0%, 100%, 0.6)" stroke-width="1.5"></path><path d="M711.91 695L508.24 557.15" stroke="hsla(0, 0%, 100%, 0.6)" stroke-width="1.5"></path><path d="M711.91 695L993.13 644.34" stroke="hsla(0, 0%, 100%, 0.6)" stroke-width="1.5"></path><path d="M804.42 546.09L804.42 546.09" stroke="hsla(0, 0%, 100%, 0.6)" stroke-width="1.5"></path><path d="M804.42 546.09L711.15 547.97" stroke="hsla(0, 0%, 100%, 0.6)" stroke-width="1.5"></path><path d="M804.42 546.09L830.72 650.55" stroke="hsla(0, 0%, 100%, 0.6)" stroke-width="1.5"></path><path d="M804.42 546.09L808.25 404.45" stroke="hsla(0, 0%, 100%, 0.6)" stroke-width="1.5"></path><path d="M830.72 650.55L830.72 650.55" stroke="hsla(0, 0%, 100%, 0.6)" stroke-width="1.5"></path><path d="M938.24 348.36L938.24 348.36" stroke="hsla(0, 0%, 100%, 0.6)" stroke-width="1.5"></path><path d="M938.24 348.36L989.23 240.65" stroke="hsla(0, 0%, 100%, 0.6)" stroke-width="1.5"></path><path d="M938.24 348.36L808.25 404.45" stroke="hsla(0, 0%, 100%, 0.6)" stroke-width="1.5"></path><path d="M938.24 348.36L1105.04 397.17" stroke="hsla(0, 0%, 100%, 0.6)" stroke-width="1.5"></path><path d="M1274.4 546.68L1274.4 546.68" stroke="hsla(0, 0%, 100%, 0.6)" stroke-width="1.5"></path><path d="M1274.4 546.68L1151.35 517.21" stroke="hsla(0, 0%, 100%, 0.6)" stroke-width="1.5"></path><path d="M1274.4 546.68L1414.81 558.34" stroke="hsla(0, 0%, 100%, 0.6)" stroke-width="1.5"></path><path d="M1395.78 222.18L1395.78 222.18" stroke="hsla(0, 0%, 100%, 0.6)" stroke-width="1.5"></path><path d="M1395.78 222.18L1284.5 228.89" stroke="hsla(0, 0%, 100%, 0.6)" stroke-width="1.5"></path><path d="M1424.64 396.19L1424.64 396.19" stroke="hsla(0, 0%, 100%, 0.6)" stroke-width="1.5"></path><path d="M1424.64 396.19L1546.99 395.06" stroke="hsla(0, 0%, 100%, 0.6)" stroke-width="1.5"></path><path d="M1424.64 396.19L1414.81 558.34" stroke="hsla(0, 0%, 100%, 0.6)" stroke-width="1.5"></path><path d="M1424.64 396.19L1257.65 381.39" stroke="hsla(0, 0%, 100%, 0.6)" stroke-width="1.5"></path><path d="M1424.64 396.19L1395.78 222.18" stroke="hsla(0, 0%, 100%, 0.6)" stroke-width="1.5"></path><path d="M1424.64 396.19L1274.4 546.68" stroke="hsla(0, 0%, 100%, 0.6)" stroke-width="1.5"></path><path d="M1424.64 396.19L1600.59 524.12" stroke="hsla(0, 0%, 100%, 0.6)" stroke-width="1.5"></path><path d="M1550.53 86L1550.53 86" stroke="hsla(0, 0%, 100%, 0.6)" stroke-width="1.5"></path><path d="M1550.53 86L1400.07 60.88" stroke="hsla(0, 0%, 100%, 0.6)" stroke-width="1.5"></path><path d="M1550.53 86L1609.6 239.11" stroke="hsla(0, 0%, 100%, 0.6)" stroke-width="1.5"></path><path d="M1604.8 669.27L1604.8 669.27" stroke="hsla(0, 0%, 100%, 0.6)" stroke-width="1.5"></path><path d="M1604.8 669.27L1600.59 524.12" stroke="hsla(0, 0%, 100%, 0.6)" stroke-width="1.5"></path><path d="M1604.8 669.27L1394.74 706.8" stroke="hsla(0, 0%, 100%, 0.6)" stroke-width="1.5"></path><path d="M1604.8 669.27L1414.81 558.34" stroke="hsla(0, 0%, 100%, 0.6)" stroke-width="1.5"></path><path d="M-74.88 544.4L-74.88 544.4" stroke="hsla(0, 0%, 100%, 0.6)" stroke-width="1.5"></path><path d="M-74.88 544.4L-65.16 660.96" stroke="hsla(0, 0%, 100%, 0.6)" stroke-width="1.5"></path><path d="M-74.88 544.4L89.3 490.62" stroke="hsla(0, 0%, 100%, 0.6)" stroke-width="1.5"></path><path d="M-65.16 660.96L-65.16 660.96" stroke="hsla(0, 0%, 100%, 0.6)" stroke-width="1.5"></path><path d="M-65.16 660.96L89.3 490.62" stroke="hsla(0, 0%, 100%, 0.6)" stroke-width="1.5"></path><path d="M-65.16 660.96L247.43 672.7" stroke="hsla(0, 0%, 100%, 0.6)" stroke-width="1.5"></path><path d="M-65.16 660.96L253.43 487.83" stroke="hsla(0, 0%, 100%, 0.6)" stroke-width="1.5"></path><path d="M89.3 490.62L89.3 490.62" stroke="hsla(0, 0%, 100%, 0.6)" stroke-width="1.5"></path><path d="M89.3 490.62L253.43 487.83" stroke="hsla(0, 0%, 100%, 0.6)" stroke-width="1.5"></path><path d="M253.43 487.83L253.43 487.83" stroke="hsla(0, 0%, 100%, 0.6)" stroke-width="1.5"></path><path d="M253.43 487.83L411.48 531.24" stroke="hsla(0, 0%, 100%, 0.6)" stroke-width="1.5"></path><path d="M253.43 487.83L247.43 672.7" stroke="hsla(0, 0%, 100%, 0.6)" stroke-width="1.5"></path><path d="M247.43 672.7L247.43 672.7" stroke="hsla(0, 0%, 100%, 0.6)" stroke-width="1.5"></path><path d="M247.43 672.7L411.48 531.24" stroke="hsla(0, 0%, 100%, 0.6)" stroke-width="1.5"></path><path d="M411.48 531.24L411.48 531.24" stroke="hsla(0, 0%, 100%, 0.6)" stroke-width="1.5"></path><path d="M411.48 531.24L508.24 557.15" stroke="hsla(0, 0%, 100%, 0.6)" stroke-width="1.5"></path><path d="M411.48 531.24L514.69 656.83" stroke="hsla(0, 0%, 100%, 0.6)" stroke-width="1.5"></path><path d="M508.24 557.15L508.24 557.15" stroke="hsla(0, 0%, 100%, 0.6)" stroke-width="1.5"></path><path d="M508.24 557.15L514.69 656.83" stroke="hsla(0, 0%, 100%, 0.6)" stroke-width="1.5"></path><path d="M508.24 557.15L711.15 547.97" stroke="hsla(0, 0%, 100%, 0.6)" stroke-width="1.5"></path><path d="M514.69 656.83L514.69 656.83" stroke="hsla(0, 0%, 100%, 0.6)" stroke-width="1.5"></path><path d="M514.69 656.83L711.15 547.97" stroke="hsla(0, 0%, 100%, 0.6)" stroke-width="1.5"></path><path d="M711.15 547.97L711.15 547.97" stroke="hsla(0, 0%, 100%, 0.6)" stroke-width="1.5"></path><path d="M711.15 547.97L830.72 650.55" stroke="hsla(0, 0%, 100%, 0.6)" stroke-width="1.5"></path><path d="M711.15 547.97L808.25 404.45" stroke="hsla(0, 0%, 100%, 0.6)" stroke-width="1.5"></path><path d="M808.25 404.45L808.25 404.45" stroke="hsla(0, 0%, 100%, 0.6)" stroke-width="1.5"></path><path d="M808.25 404.45L1002.05 551.26" stroke="hsla(0, 0%, 100%, 0.6)" stroke-width="1.5"></path><path d="M989.23 240.65L989.23 240.65" stroke="hsla(0, 0%, 100%, 0.6)" stroke-width="1.5"></path><path d="M989.23 240.65L1099.52 247.12" stroke="hsla(0, 0%, 100%, 0.6)" stroke-width="1.5"></path><path d="M1002.05 551.26L1002.05 551.26" stroke="hsla(0, 0%, 100%, 0.6)" stroke-width="1.5"></path><path d="M1002.05 551.26L993.13 644.34" stroke="hsla(0, 0%, 100%, 0.6)" stroke-width="1.5"></path><path d="M993.13 644.34L993.13 644.34" stroke="hsla(0, 0%, 100%, 0.6)" stroke-width="1.5"></path><path d="M993.13 644.34L1113.68 644.47" stroke="hsla(0, 0%, 100%, 0.6)" stroke-width="1.5"></path><path d="M993.13 644.34L830.72 650.55" stroke="hsla(0, 0%, 100%, 0.6)" stroke-width="1.5"></path><path d="M993.13 644.34L1151.35 517.21" stroke="hsla(0, 0%, 100%, 0.6)" stroke-width="1.5"></path><path d="M993.13 644.34L804.42 546.09" stroke="hsla(0, 0%, 100%, 0.6)" stroke-width="1.5"></path><path d="M1135.83 106.17L1135.83 106.17" stroke="hsla(0, 0%, 100%, 0.6)" stroke-width="1.5"></path><path d="M1135.83 106.17L1099.52 247.12" stroke="hsla(0, 0%, 100%, 0.6)" stroke-width="1.5"></path><path d="M1135.83 106.17L1287.61 83.92" stroke="hsla(0, 0%, 100%, 0.6)" stroke-width="1.5"></path><path d="M1099.52 247.12L1099.52 247.12" stroke="hsla(0, 0%, 100%, 0.6)" stroke-width="1.5"></path><path d="M1099.52 247.12L1105.04 397.17" stroke="hsla(0, 0%, 100%, 0.6)" stroke-width="1.5"></path><path d="M1099.52 247.12L1284.5 228.89" stroke="hsla(0, 0%, 100%, 0.6)" stroke-width="1.5"></path><path d="M1099.52 247.12L938.24 348.36" stroke="hsla(0, 0%, 100%, 0.6)" stroke-width="1.5"></path><path d="M1105.04 397.17L1105.04 397.17" stroke="hsla(0, 0%, 100%, 0.6)" stroke-width="1.5"></path><path d="M1105.04 397.17L1151.35 517.21" stroke="hsla(0, 0%, 100%, 0.6)" stroke-width="1.5"></path><path d="M1105.04 397.17L1257.65 381.39" stroke="hsla(0, 0%, 100%, 0.6)" stroke-width="1.5"></path><path d="M1151.35 517.21L1151.35 517.21" stroke="hsla(0, 0%, 100%, 0.6)" stroke-width="1.5"></path><path d="M1151.35 517.21L1113.68 644.47" stroke="hsla(0, 0%, 100%, 0.6)" stroke-width="1.5"></path><path d="M1151.35 517.21L1002.05 551.26" stroke="hsla(0, 0%, 100%, 0.6)" stroke-width="1.5"></path><path d="M1151.35 517.21L1257.65 381.39" stroke="hsla(0, 0%, 100%, 0.6)" stroke-width="1.5"></path><path d="M1113.68 644.47L1113.68 644.47" stroke="hsla(0, 0%, 100%, 0.6)" stroke-width="1.5"></path><path d="M1113.68 644.47L1002.05 551.26" stroke="hsla(0, 0%, 100%, 0.6)" stroke-width="1.5"></path><path d="M1113.68 644.47L1264.87 691.18" stroke="hsla(0, 0%, 100%, 0.6)" stroke-width="1.5"></path><path d="M1250.61 -74.39L1250.61 -74.39" stroke="hsla(0, 0%, 100%, 0.6)" stroke-width="1.5"></path><path d="M1250.61 -74.39L1287.61 83.92" stroke="hsla(0, 0%, 100%, 0.6)" stroke-width="1.5"></path><path d="M1250.61 -74.39L1424.01 -71.76" stroke="hsla(0, 0%, 100%, 0.6)" stroke-width="1.5"></path><path d="M1250.61 -74.39L1400.07 60.88" stroke="hsla(0, 0%, 100%, 0.6)" stroke-width="1.5"></path><path d="M1250.61 -74.39L1135.83 106.17" stroke="hsla(0, 0%, 100%, 0.6)" stroke-width="1.5"></path><path d="M1287.61 83.92L1287.61 83.92" stroke="hsla(0, 0%, 100%, 0.6)" stroke-width="1.5"></path><path d="M1287.61 83.92L1400.07 60.88" stroke="hsla(0, 0%, 100%, 0.6)" stroke-width="1.5"></path><path d="M1287.61 83.92L1284.5 228.89" stroke="hsla(0, 0%, 100%, 0.6)" stroke-width="1.5"></path><path d="M1284.5 228.89L1284.5 228.89" stroke="hsla(0, 0%, 100%, 0.6)" stroke-width="1.5"></path><path d="M1284.5 228.89L1257.65 381.39" stroke="hsla(0, 0%, 100%, 0.6)" stroke-width="1.5"></path><path d="M1257.65 381.39L1257.65 381.39" stroke="hsla(0, 0%, 100%, 0.6)" stroke-width="1.5"></path><path d="M1257.65 381.39L1274.4 546.68" stroke="hsla(0, 0%, 100%, 0.6)" stroke-width="1.5"></path><path d="M1264.87 691.18L1264.87 691.18" stroke="hsla(0, 0%, 100%, 0.6)" stroke-width="1.5"></path><path d="M1264.87 691.18L1394.74 706.8" stroke="hsla(0, 0%, 100%, 0.6)" stroke-width="1.5"></path><path d="M1264.87 691.18L1274.4 546.68" stroke="hsla(0, 0%, 100%, 0.6)" stroke-width="1.5"></path><path d="M1424.01 -71.76L1424.01 -71.76" stroke="hsla(0, 0%, 100%, 0.6)" stroke-width="1.5"></path><path d="M1424.01 -71.76L1400.07 60.88" stroke="hsla(0, 0%, 100%, 0.6)" stroke-width="1.5"></path><path d="M1424.01 -71.76L1597.34 -95.02" stroke="hsla(0, 0%, 100%, 0.6)" stroke-width="1.5"></path><path d="M1424.01 -71.76L1550.53 86" stroke="hsla(0, 0%, 100%, 0.6)" stroke-width="1.5"></path><path d="M1424.01 -71.76L1287.61 83.92" stroke="hsla(0, 0%, 100%, 0.6)" stroke-width="1.5"></path><path d="M1400.07 60.88L1400.07 60.88" stroke="hsla(0, 0%, 100%, 0.6)" stroke-width="1.5"></path><path d="M1400.07 60.88L1395.78 222.18" stroke="hsla(0, 0%, 100%, 0.6)" stroke-width="1.5"></path><path d="M1414.81 558.34L1414.81 558.34" stroke="hsla(0, 0%, 100%, 0.6)" stroke-width="1.5"></path><path d="M1414.81 558.34L1394.74 706.8" stroke="hsla(0, 0%, 100%, 0.6)" stroke-width="1.5"></path><path d="M1414.81 558.34L1600.59 524.12" stroke="hsla(0, 0%, 100%, 0.6)" stroke-width="1.5"></path><path d="M1414.81 558.34L1264.87 691.18" stroke="hsla(0, 0%, 100%, 0.6)" stroke-width="1.5"></path><path d="M1414.81 558.34L1546.99 395.06" stroke="hsla(0, 0%, 100%, 0.6)" stroke-width="1.5"></path><path d="M1394.74 706.8L1394.74 706.8" stroke="hsla(0, 0%, 100%, 0.6)" stroke-width="1.5"></path><path d="M1597.34 -95.02L1597.34 -95.02" stroke="hsla(0, 0%, 100%, 0.6)" stroke-width="1.5"></path><path d="M1597.34 -95.02L1550.53 86" stroke="hsla(0, 0%, 100%, 0.6)" stroke-width="1.5"></path><path d="M1609.6 239.11L1609.6 239.11" stroke="hsla(0, 0%, 100%, 0.6)" stroke-width="1.5"></path><path d="M1546.99 395.06L1546.99 395.06" stroke="hsla(0, 0%, 100%, 0.6)" stroke-width="1.5"></path><path d="M1546.99 395.06L1600.59 524.12" stroke="hsla(0, 0%, 100%, 0.6)" stroke-width="1.5"></path><path d="M1546.99 395.06L1609.6 239.11" stroke="hsla(0, 0%, 100%, 0.6)" stroke-width="1.5"></path><path d="M1546.99 395.06L1395.78 222.18" stroke="hsla(0, 0%, 100%, 0.6)" stroke-width="1.5"></path><path d="M1546.99 395.06L1604.8 669.27" stroke="hsla(0, 0%, 100%, 0.6)" stroke-width="1.5"></path><path d="M1600.59 524.12L1600.59 524.12" stroke="hsla(0, 0%, 100%, 0.6)" stroke-width="1.5"></path><circle r="25" cx="90.52" cy="660.31" fill="url(&quot;#SvgjsRadialGradient1015&quot;)"></circle><circle r="25" cx="711.91" cy="695" fill="url(&quot;#SvgjsRadialGradient1015&quot;)"></circle><circle r="25" cx="804.42" cy="546.09" fill="url(&quot;#SvgjsRadialGradient1015&quot;)"></circle><circle r="25" cx="830.72" cy="650.55" fill="url(&quot;#SvgjsRadialGradient1015&quot;)"></circle><circle r="25" cx="938.24" cy="348.36" fill="url(&quot;#SvgjsRadialGradient1015&quot;)"></circle><circle r="25" cx="1274.4" cy="546.68" fill="url(&quot;#SvgjsRadialGradient1015&quot;)"></circle><circle r="25" cx="1395.78" cy="222.18" fill="url(&quot;#SvgjsRadialGradient1015&quot;)"></circle><circle r="25" cx="1424.64" cy="396.19" fill="url(&quot;#SvgjsRadialGradient1015&quot;)"></circle><circle r="25" cx="1550.53" cy="86" fill="url(&quot;#SvgjsRadialGradient1015&quot;)"></circle><circle r="25" cx="1604.8" cy="669.27" fill="url(&quot;#SvgjsRadialGradient1015&quot;)"></circle><circle r="5" cx="-74.88" cy="544.4" fill="rgba(255, 255, 255, 0.8)"></circle><circle r="5" cx="-65.16" cy="660.96" fill="rgba(255, 255, 255, 0.8)"></circle><circle r="5" cx="89.3" cy="490.62" fill="rgba(255, 255, 255, 0.8)"></circle><circle r="5" cx="253.43" cy="487.83" fill="rgba(255, 255, 255, 0.8)"></circle><circle r="5" cx="247.43" cy="672.7" fill="rgba(255, 255, 255, 0.8)"></circle><circle r="5" cx="411.48" cy="531.24" fill="rgba(255, 255, 255, 0.8)"></circle><circle r="5" cx="508.24" cy="557.15" fill="rgba(255, 255, 255, 0.8)"></circle><circle r="5" cx="514.69" cy="656.83" fill="rgba(255, 255, 255, 0.8)"></circle><circle r="5" cx="711.15" cy="547.97" fill="rgba(255, 255, 255, 0.8)"></circle><circle r="5" cx="808.25" cy="404.45" fill="rgba(255, 255, 255, 0.8)"></circle><circle r="5" cx="989.23" cy="240.65" fill="rgba(255, 255, 255, 0.8)"></circle><circle r="5" cx="1002.05" cy="551.26" fill="rgba(255, 255, 255, 0.8)"></circle><circle r="5" cx="993.13" cy="644.34" fill="rgba(255, 255, 255, 0.8)"></circle><circle r="5" cx="1135.83" cy="106.17" fill="rgba(255, 255, 255, 0.8)"></circle><circle r="5" cx="1099.52" cy="247.12" fill="rgba(255, 255, 255, 0.8)"></circle><circle r="5" cx="1105.04" cy="397.17" fill="rgba(255, 255, 255, 0.8)"></circle><circle r="5" cx="1151.35" cy="517.21" fill="rgba(255, 255, 255, 0.8)"></circle><circle r="5" cx="1113.68" cy="644.47" fill="rgba(255, 255, 255, 0.8)"></circle><circle r="5" cx="1250.61" cy="-74.39" fill="rgba(255, 255, 255, 0.8)"></circle><circle r="5" cx="1287.61" cy="83.92" fill="rgba(255, 255, 255, 0.8)"></circle><circle r="5" cx="1284.5" cy="228.89" fill="rgba(255, 255, 255, 0.8)"></circle><circle r="5" cx="1257.65" cy="381.39" fill="rgba(255, 255, 255, 0.8)"></circle><circle r="5" cx="1264.87" cy="691.18" fill="rgba(255, 255, 255, 0.8)"></circle><circle r="5" cx="1424.01" cy="-71.76" fill="rgba(255, 255, 255, 0.8)"></circle><circle r="5" cx="1400.07" cy="60.88" fill="rgba(255, 255, 255, 0.8)"></circle><circle r="5" cx="1414.81" cy="558.34" fill="rgba(255, 255, 255, 0.8)"></circle><circle r="5" cx="1394.74" cy="706.8" fill="rgba(255, 255, 255, 0.8)"></circle><circle r="5" cx="1597.34" cy="-95.02" fill="rgba(255, 255, 255, 0.8)"></circle><circle r="5" cx="1609.6" cy="239.11" fill="rgba(255, 255, 255, 0.8)"></circle><circle r="5" cx="1546.99" cy="395.06" fill="rgba(255, 255, 255, 0.8)"></circle><circle r="5" cx="1600.59" cy="524.12" fill="rgba(255, 255, 255, 0.8)"></circle></g><defs><mask id="SvgjsMask1014"><rect width="1440" height="560" fill="#ffffff"></rect></mask><radialGradient id="SvgjsRadialGradient1015"><stop stop-color="#ffffff" offset="0.1"></stop><stop stop-color="rgba(255, 255, 255, 0.6)" offset="0.2"></stop><stop stop-color="rgba(255, 255, 255, 0)" offset="1"></stop></radialGradient></defs></svg>