<?xml version="1.0" standalone="no"?>
<svg xmlns:xlink="http://www.w3.org/1999/xlink" id="wave" style="transform:rotate(0deg); transition: 0.3s" viewBox="0 0 1440 490" version="1.1" xmlns="http://www.w3.org/2000/svg"><defs><linearGradient id="sw-gradient-0" x1="0" x2="0" y1="1" y2="0"><stop stop-color="rgba(255, 255, 255, 0.6)" offset="0%"/><stop stop-color="rgba(255, 255, 255, 0.3)" offset="100%"/></linearGradient></defs><path style="transform:translate(0, 0px); opacity:1" fill="url(#sw-gradient-0)" d="M0,392L17.1,375.7C34.3,359,69,327,103,294C137.1,261,171,229,206,212.3C240,196,274,196,309,179.7C342.9,163,377,131,411,122.5C445.7,114,480,131,514,171.5C548.6,212,583,278,617,302.2C651.4,327,686,310,720,285.8C754.3,261,789,229,823,245C857.1,261,891,327,926,294C960,261,994,131,1029,130.7C1062.9,131,1097,261,1131,326.7C1165.7,392,1200,392,1234,400.2C1268.6,408,1303,425,1337,400.2C1371.4,376,1406,310,1440,294C1474.3,278,1509,310,1543,277.7C1577.1,245,1611,147,1646,106.2C1680,65,1714,82,1749,114.3C1782.9,147,1817,196,1851,204.2C1885.7,212,1920,180,1954,171.5C1988.6,163,2023,180,2057,204.2C2091.4,229,2126,261,2160,285.8C2194.3,310,2229,327,2263,294C2297.1,261,2331,180,2366,138.8C2400,98,2434,98,2451,98L2468.6,98L2468.6,490L2451.4,490C2434.3,490,2400,490,2366,490C2331.4,490,2297,490,2263,490C2228.6,490,2194,490,2160,490C2125.7,490,2091,490,2057,490C2022.9,490,1989,490,1954,490C1920,490,1886,490,1851,490C1817.1,490,1783,490,1749,490C1714.3,490,1680,490,1646,490C1611.4,490,1577,490,1543,490C1508.6,490,1474,490,1440,490C1405.7,490,1371,490,1337,490C1302.9,490,1269,490,1234,490C1200,490,1166,490,1131,490C1097.1,490,1063,490,1029,490C994.3,490,960,490,926,490C891.4,490,857,490,823,490C788.6,490,754,490,720,490C685.7,490,651,490,617,490C582.9,490,549,490,514,490C480,490,446,490,411,490C377.1,490,343,490,309,490C274.3,490,240,490,206,490C171.4,490,137,490,103,490C68.6,490,34,490,17,490L0,490Z"/></svg>